<svg width="989" height="94" viewBox="0 0 989 94" fill="none" xmlns="http://www.w3.org/2000/svg">
<path d="M21.2266 80.4531H39.3906C45.25 80.4531 48.1797 77.1328 48.1797 70.4922V23.0312C48.1797 16.3906 45.25 13.0703 39.3906 13.0703H21.2266C15.3672 13.0703 12.4375 16.3906 12.4375 23.0312L12.4375 70.4922C12.4375 77.1328 15.3672 80.4531 21.2266 80.4531ZM21.2266 91C7.55469 91 0.71875 84.1641 0.71875 70.4922V23.0312C0.71875 9.35938 7.55469 2.52344 21.2266 2.52344H39.3906C53.0625 2.52344 59.8984 9.35938 59.8984 23.0312V70.4922C59.8984 84.1641 53.0625 91 39.3906 91H21.2266ZM83.3359 93.3438V23.0312C83.3359 9.35938 90.1719 2.52344 103.844 2.52344H122.008C135.68 2.52344 142.516 9.35937 142.516 23.0312V88.0703L131.383 93.3438H130.797V23.0312C130.797 16.3906 127.867 13.0703 122.008 13.0703L103.844 13.0703C97.9844 13.0703 95.0547 16.3906 95.0547 23.0312V88.0703L83.9219 93.3438H83.3359ZM165.953 91V5.45312L172.164 2.52344L209.312 2.52344V3.10937L204.566 13.1875H177.672V41.4297H209.312V42.0156L204.566 52.0938H177.672V80.3359H219.098V80.9219L214.352 91H165.953ZM254.312 80.4531H272.477C278.336 80.4531 281.266 77.1328 281.266 70.4922V23.0312C281.266 16.3906 278.336 13.0703 272.477 13.0703H254.312C248.453 13.0703 245.523 16.3906 245.523 23.0312V70.4922C245.523 77.1328 248.453 80.4531 254.312 80.4531ZM254.312 91C240.641 91 233.805 84.1641 233.805 70.4922V23.0312C233.805 9.35937 240.641 2.52344 254.312 2.52344H272.477C286.148 2.52344 292.984 9.35937 292.984 23.0312V70.4922C292.984 84.1641 286.148 91 272.477 91H254.312ZM316.422 93.3437V5.45312L322.633 2.52344H359.781V3.10937L355.035 13.1875H328.141V41.4297H359.781V42.0156L355.035 52.0937H328.141V88.0703L317.008 93.3437H316.422ZM402.555 80.4531H420.719C426.578 80.4531 429.508 77.1328 429.508 70.4922V23.0312C429.508 16.3906 426.578 13.0703 420.719 13.0703H402.555C396.695 13.0703 393.766 16.3906 393.766 23.0312V70.4922C393.766 77.1328 396.695 80.4531 402.555 80.4531ZM402.555 91C388.883 91 382.047 84.1641 382.047 70.4922V23.0312C382.047 9.35937 388.883 2.52344 402.555 2.52344H420.719C434.391 2.52344 441.227 9.35937 441.227 23.0312V70.4922C441.227 84.1641 434.391 91 420.719 91H402.555ZM464.664 93.3437V23.0312C464.664 9.35937 471.5 2.52344 485.172 2.52344H503.336C517.008 2.52344 523.844 9.35937 523.844 23.0312V88.0703L512.711 93.3437H512.125V23.0312C512.125 16.3906 509.195 13.0703 503.336 13.0703H485.172C479.312 13.0703 476.383 16.3906 476.383 23.0312V88.0703L465.25 93.3437H464.664ZM547.281 91V5.45312L553.492 2.52344L590.641 2.52344V3.10937L585.895 13.1875H559V41.4297H590.641V42.0156L585.895 52.0937H559V80.3359H600.426V80.9219L595.68 91H547.281ZM615.133 93.3437V23.0312C615.133 9.35937 621.969 2.52344 635.641 2.52344H653.805C660.836 2.52344 665.719 4.39844 668.453 8.14844C671.578 4.39844 676.461 2.52344 683.102 2.52344L701.266 2.52344C714.938 2.52344 721.773 9.35937 721.773 23.0312V88.0703L710.641 93.3437H710.055V23.0312C710.055 16.3906 707.125 13.0703 701.266 13.0703H683.102C677.242 13.0703 674.312 16.3906 674.312 23.0312V88.0703L663.18 93.3437H662.594V23.0312C662.594 16.3906 659.664 13.0703 653.805 13.0703H635.641C629.781 13.0703 626.852 16.3906 626.852 23.0312V88.0703L615.719 93.3437H615.133ZM745.211 91V5.45312L751.422 2.52344H788.57V3.10937L783.824 13.1875H756.93V41.4297L788.57 41.4297V42.0156L783.824 52.0937L756.93 52.0937V80.3359L798.355 80.3359V80.9219L793.609 91L745.211 91ZM824.781 80.4531H850.562C856.422 80.4531 859.352 77.1328 859.352 70.4922V23.0312C859.352 16.3906 856.422 13.0703 850.562 13.0703H824.781V80.4531ZM813.062 91V5.45312L819.273 2.52344L850.562 2.52344C864.234 2.52344 871.07 9.35937 871.07 23.0312V70.4922C871.07 84.1641 864.234 91 850.562 91H813.062ZM894.508 93.3437V5.45312L905.641 0.179687H906.227V88.0703L895.094 93.3437H894.508ZM929.664 93.3437V23.0312C929.664 9.35937 936.5 2.52344 950.172 2.52344H968.336C982.008 2.52344 988.844 9.35937 988.844 23.0312V88.0703L977.711 93.3437H977.125V52.0937H941.383V88.0703L930.25 93.3437H929.664ZM941.383 41.4297H977.125V23.0312C977.125 16.3906 974.195 13.0703 968.336 13.0703H950.172C944.312 13.0703 941.383 16.3906 941.383 23.0312V41.4297Z" fill="#D82525"/>
</svg>
